<svg width="19" height="19" viewBox="0 0 19 19" fill="none" xmlns="http://www.w3.org/2000/svg">
<path d="M17.2372 8.62503V4.39389C17.2372 3.46107 16.4782 2.70215 15.5454 2.70215H3.45459C2.52177 2.70215 1.76284 3.46107 1.76284 4.39389V8.62503C0.74768 8.90606 0 9.8375 0 10.9408V14.1557C0 14.4672 0.252566 14.7198 0.564062 14.7198H1.76284V15.7345C1.76284 16.046 2.01541 16.2986 2.32691 16.2986C2.6384 16.2986 2.89097 16.046 2.89097 15.7345V14.7198H16.109V15.7345C16.109 16.046 16.3616 16.2986 16.6731 16.2986C16.9846 16.2986 17.2372 16.046 17.2372 15.7345V14.7198H18.4359C18.7474 14.7198 19 14.4672 19 14.1557V10.9408C19 9.8375 18.2523 8.90606 17.2372 8.62503ZM2.89097 4.39389C2.89097 4.08314 3.14383 3.83027 3.45459 3.83027H15.5455C15.8562 3.83027 16.1091 4.08314 16.1091 4.39389V8.53775H14.7874V7.4055C14.7874 6.42095 13.9864 5.61998 13.0019 5.61998H10.7215C10.2493 5.61998 9.81966 5.80453 9.50004 6.10493C9.18041 5.80457 8.75076 5.61998 8.27858 5.61998H5.99817C5.01362 5.61998 4.21266 6.42099 4.21266 7.4055V8.53775H2.89097V4.39389ZM13.6593 7.4055V8.53775H10.0641V7.4055C10.0641 7.04298 10.359 6.74811 10.7215 6.74811H13.0019C13.3644 6.74811 13.6593 7.04302 13.6593 7.4055ZM8.9359 7.4055V8.53775H5.34067V7.4055C5.34067 7.04298 5.63562 6.74811 5.99806 6.74811H8.27847C8.64099 6.74811 8.9359 7.04302 8.9359 7.4055ZM17.8719 13.5917H1.12812V10.9408C1.12812 10.2378 1.70005 9.66587 2.40309 9.66587H16.5969C17.2999 9.66587 17.8719 10.2378 17.8719 10.9408V13.5917Z" fill="#696969"/>
</svg>
